<svg version="1.1" id="레이어_1" xmlns="http://www.w3.org/2000/svg" xmlns:xlink="http://www.w3.org/1999/xlink" x="0px" y="0px" width="1000px" height="1000px" viewBox="0 0 1000 1000" enable-background="new 0 0 1000 1000" xml:space="preserve">
<g>
	<rect fill="#00D564" width="1000" height="1000"></rect>
	<path fill="#FFFFFF" d="M834.424,642.725c-0.176,1.777-1.611,3.184-3.398,3.301l-32.373,0.996
		c-1.338,0.137-2.656-0.459-3.438-1.543l-42.666-61.572c-0.859-1.152-2.764-0.596-2.734,0.83l-0.107,61.963
		c-0.02,1.943-1.543,3.545-3.486,3.633l-38.164,1.758c-2.061,0.176-3.857-1.357-4.033-3.408c0-0.059,0-0.098,0-0.166l1.582-140.103
		c0-2.002,1.631-3.623,3.643-3.608c0.02,0,0.039,0,0.068,0l34.082,1.313c1.27-0.015,2.441,0.596,3.164,1.636l46.758,70.537
		c0.811,1.201,2.705,0.703,2.764-0.703l0.752-67.603c0.127-1.958,1.758-3.467,3.73-3.423l35.43,0.366
		c2.197,0,3.955,1.787,3.789,3.892L834.424,642.725z M687.207,473.213c-26.357-0.674-50.615-1.362-76.963-2.08
		c-2.695-0.073-4.863-2.031-4.844-4.399c0.361-54.854,0.703-109.678,1.064-164.512c0-2.407,2.197-4.448,4.873-4.609
		c24.795-1.528,56.563-3.75,81.367-5.176c30.479-2.017,63.018,7.095,63.232,47.686c0.078,15.269-7.441,30.439-20.391,40.034
		c-0.43,0.298-0.674,0.796-0.645,1.313c0,0.542,0.273,1.069,0.781,1.294c15.732,6.821,24.697,18.643,23.555,40.986
		c-2.148,42.754-37.93,49.829-72.012,49.463H687.207z M614.561,663.271c-45.596,1.836-82.314-32.734-82.314-79.668
		c0-48.994,30.117-82.3,80.391-82.3c44.531,0,79.141,32.437,79.141,79.839C691.777,628.672,657.861,661.523,614.561,663.271z
		 M473.901,467.178c-2.368-0.063-4.238-2.002-4.233-4.36c0.43-50.493,0.84-100.962,1.284-151.46
		c0.059-2.393,1.914-4.351,4.292-4.517c36.992-2.529,73.975-4.927,110.967-7.295c2.607-0.151,4.736,1.597,4.736,4.004l-0.244,32.769
		c-0.02,2.705-2.158,5.034-4.766,5.156c-28.984,1.382-43.027,2.08-70.215,3.447c-0.635,0.029-1.152,0.61-1.162,1.274l-0.137,16.782
		c0,0.703,0.518,1.25,1.162,1.23c23.496-0.864,36.221-1.284,61.055-2.173c2.598-0.073,4.707,2.139,4.678,4.951l-0.215,34.063
		c-0.01,2.813-2.168,5.103-4.766,5.103l-61.074,0.176c-0.645,0-1.182,0.571-1.182,1.26l-0.137,18.691
		c-0.029,0.659,0.479,1.216,1.133,1.255c27.207,0.303,41.26,0.503,70.273,0.84c2.656,0.088,4.766,2.319,4.707,4.995l-0.215,32.783
		c-0.029,2.397-2.168,4.233-4.795,4.155C547.998,469.287,510.957,468.232,473.901,467.178L473.901,467.178z M434.722,673.789
		c-52.539,1.66-91.328-32.432-91.328-87.676c0-51.729,33.604-89.575,90.527-89.575c48.32,0,86.411,38.091,86.411,87.222
		C520.332,637.012,483.242,672.227,434.722,673.789z M340.2,540.459c-0.122,1.963-1.748,3.486-3.711,3.486l-44.238-0.488
		c-0.82,0-1.484,0.654-1.484,1.484l0,0l0.801,127.773c-0.005,1.943-1.504,3.545-3.442,3.701l-44.976,3.115
		c-2.051,0.195-3.867-1.318-4.063-3.379c-0.01-0.107-0.015-0.215-0.015-0.322l0.518-131.367c-0.005-0.82-0.674-1.484-1.494-1.484
		l-48.169-1.055c-1.953,0.02-3.574-1.475-3.716-3.438l-1.694-41.914c-0.107-2.065,1.479-3.823,3.54-3.931c0.107,0,0.22,0,0.327,0
		l149.268,4.019c2.1,0.063,3.75,1.807,3.633,3.882L340.2,540.459z M251.484,322.271c10.928-0.708,23.701-1.299,35.098-2.114
		c1.567-0.122,2.925,1.074,3.306,2.925c5.566,27.163,11.494,51.035,17.373,78.12c0.156,0.742,0.688,5.889,0.879,5.928
		c0.176,0,0.723-5.21,0.889-5.928c6.855-28.057,13.584-52.905,20.264-81.03c0.444-1.87,1.899-3.252,3.555-3.369
		c13.159-0.938,21.191-1.421,34.932-2.393c1.719-0.137,3.223,1.05,3.657,2.852c6.86,28.867,13.638,54.546,20.356,83.438
		c0.176,0.786,0.786,5.996,0.981,5.996c0.19,0,0.806-5.234,0.991-6.021c7.085-29.888,14.175-56.558,21.411-86.44
		c0.444-1.87,2.031-3.262,3.95-3.442c13.252-0.923,22.598-1.382,36.343-2.324c1.284-0.112,2.544,0.42,3.335,1.436
		c0.796,1.016,1.045,2.363,0.659,3.691c-13.711,49.551-26.719,99.297-40.513,148.833c-0.479,1.758-2.09,2.979-3.916,2.939
		c-16.23-0.464-26.768-0.664-42.236-1.108c-1.699-0.044-3.198-1.343-3.652-3.159c-6.123-24.829-12.832-46.431-18.955-71.255
		c-0.176-0.718-0.757-4.238-0.923-4.238c-0.171,0.015-0.747,3.564-0.938,4.292c-6.392,24.448-13.481,45.654-19.766,70.127
		c-0.454,1.782-1.909,2.998-3.506,2.969c-14.546-0.4-27.544-0.459-41.353-0.82c-1.528-0.029-2.866-1.338-3.271-3.125
		c-9.99-43.809-22.041-87.383-32.139-131.172C247.402,324.014,249.443,322.407,251.484,322.271L251.484,322.271z M825.42,435.581
		l30.82-356.86L130.82,191.606l61.445,231.035H58.579l137.1,421.011l320.776-47.617v125.244l371.816-170.527l53.154-315.171H825.42
		L825.42,435.581z M655.107,361.284c10.635-0.337,16.162-0.522,27.012-0.845c12.227-0.386,18.359-5.503,18.359-14.619
		c0-6.743-1.904-13.457-18.086-12.72c-10.889,0.513-16.455,0.752-27.129,1.245c-0.732,0.054-1.299,0.659-1.318,1.392l-0.137,24.199
		c0,0.752,0.586,1.377,1.299,1.353V361.284z M433.921,543.896c-22.305-0.225-38.003,15.078-37.969,41.621
		c0.039,26.523,16.152,42.5,38.564,41.631c22.383-0.859,37.52-17.373,37.368-42.715
		C471.753,559.102,456.226,544.141,433.921,543.896z M613.291,544.756c-20.664,0-34.57,14.57-34.307,38.145
		c0.244,23.594,14.844,38.438,35.059,37.559s33.564-16.23,33.564-38.613C647.607,558.838,634.639,544.756,613.291,544.756
		L613.291,544.756z M684.912,405.029c-12.1,0.024-18.242,0.19-30.059,0.229c-0.732,0-1.318,0.625-1.318,1.387l-0.156,24.795
		c0,0.723,0.566,1.323,1.299,1.348l30.098,0.503c17.109,0.205,19.297-7.759,19.297-13.833
		C704.092,409.214,697.783,404.99,684.912,405.029L684.912,405.029z"></path>
</g>
</svg>